DataType=double
version=3
OpenSimVersion=4.5-2023-11-26-efcdfd3eb
endheader
time	EMG01_right_gast_med	EMG02_right_glut_max	EMG03_left_gast_med	EMG04_left_glut_max	EMG05_right_glut_med	EMG06_right_bic_fem	EMG07_right_rect_fem	EMG08_right_vast_lat	EMG09_right_vast_med	EMG10_right_tens_fasc_lat	EMG11_left_glut_med	EMG12_left_bic_fem	EMG13_left_rect_fem	EMG14_left_vast_lat	EMG15_left_vast_med	EMG16_left_tens_fasc_lat
2.28	6.74042150053505	26.20168759394346	83.36857782190167	18.12245013658598	60.35150099020555	45.35536165389454	6.806982750462574	12.11637531738399	33.69615262114707	9.160071117780831	6.852957633135404	5.970456267804428	9.505285087751792	6.975665508085979	10.86554729079183	12.78198014994618
2.29	7.525533376839751	26.15639074864573	81.90550898839773	17.53517194386691	65.52946314939942	46.36684865347028	7.201383307023081	12.55441443868251	37.22366151845338	10.45285400460432	6.55465385644859	6.330140229997786	9.546501648184675	7.155999862704897	11.07960158577915	12.32664783124781
2.3	8.4123287872583	26.17586701951255	80.10811957562429	17.10749147696041	70.65436577289121	47.24518710130458	7.589757626734988	12.95696081911345	40.84992964908229	11.91390208445745	6.272357722547119	6.67647273105078	9.553668179262649	7.319433400488488	11.41263970134443	12.06476859972578
2.31	9.415145164132358	26.25572958368695	77.98735511374784	16.84864597066635	75.66045221192962	47.98169794457615	7.967523697592343	13.31915727871985	44.54419705372862	13.52984955489716	6.005171237664899	7.004529336735293	9.525523130641851	7.462045371293755	11.84964033795345	12.00230046318217
2.32	10.54789068975014	26.39069352163917	75.55891315548335	16.76639053424261	80.48359552529566	48.56903802452412	8.33030052016743	13.63670847947609	48.27417813463583	15.28549510496272	5.752231057684257	7.309619440235008	9.461339546129265	7.580448546811247	12.37503255619564	12.14352020029628
2.33	11.82382560625662	26.5746377720581	72.84292767534593	16.8668559412135	85.06216311733991	49.00132456971461	8.673966464228792	13.90594734368789	52.00645838345731	17.16392920464371	5.512710769810506	7.58734241060449	9.360930265794462	7.671812138320336	12.97289389315571	12.49085493255868
2.34	13.25535423619038	26.80067876527828	69.86355612194978	17.154414930835	89.33788452229489	49.27424660329026	8.994713270170219	14.12388679018825	55.70692072362374	19.14668448459895	5.28582455705586	7.833646024059395	9.224642165064344	7.733877348535907	13.62714746234207	13.04473163555344
2.35	14.85382943156542	27.06125677591066	66.64848394461532	17.63155995678638	93.25670590891973	49.38516010530718	9.289094701993253	14.28825575495527	59.34119339442832	21.21390959804399	5.070832184135813	8.044886422542181	9.053339854088163	7.76496629788001	14.32175681587448	13.80344861890399
2.36	16.62937073841189	27.3482360705363	63.22836251674713	18.2987957162461	96.76961327293466	49.33316390810831	9.554068885072397	14.39751932740468	62.875109874416	23.34456642440068	4.867045217235086	8.21788868404559	8.848379792658294	7.763985119704899	15.04091703407863	14.76307299739932
2.37	18.5906970541002	27.65301955428144	59.63619807172989	19.15454991058278	99.83340474008521	49.1191534011914	9.78703352698483	14.45088362242544	66.27517048123983	25.51664984881294	4.673834331891658	8.350006918389864	8.611576214455587	7.730422119407875	15.76924031405147	15.9173679558054
2.38	20.74497402446589	27.96667780997264	55.90671091399042	20.19510560668554	102.4113907409874	48.74584876849665	9.985853509369109	14.448286597295	69.5089951472053	27.70742866503605	4.490637490263145	8.439182597491421	8.345160516830866	7.664341969625208	16.49193428421907	17.25775331191126
2.39	23.09767595277113	28.28009131406787	52.07568464432448	21.41455850597944	104.4739995918869	48.21779399753689	10.14888066321224	14.39037634830256	72.54575769668794	29.89370539367516	4.316968702382852	8.483999591964345	8.05173583954361	7.566376884747315	17.19497127486714	18.7733025612193
2.4	25.652461657657	28.58410344001719	48.1793240207736	22.80480243853851	105.9992660037699	47.54132299748613	10.27496578637531	14.27847850515228	75.35659383501492	32.05209197942713	4.15242702960609	8.483734146082075	7.734228484928987	7.437715565210499	17.86524678643213	20.45077920631726
